<mxfile host="app.diagrams.net" modified="2024-02-16T17:00:21.942Z" agent="Mozilla/5.0 (Windows NT 10.0; Win64; x64) AppleWebKit/537.36 (KHTML, like Gecko) Chrome/121.0.0.0 Safari/537.36" version="23.1.1" etag="TJTLCJ7hVm1KSpB2HskW" type="github">
  <diagram name="Page-1" id="eRAE_3KnIN3DBewye63u">
    <mxGraphModel>
      <root>
        <mxCell id="0" />
        <mxCell id="1" parent="0" />
      </root>
    </mxGraphModel>
  </diagram>
</mxfile>
